<svg xmlns="http://www.w3.org/2000/svg" viewBox="0 0 75 75">
    <g>
        <path d="M63.9 59.6H11.1c-2.7 0-5-2.3-5-5.2V15.3c0-2.9 2.2-5.2 5-5.2h52.8c2.7 0 5 2.3 5 5.2v39.1c-.1 2.9-2.3 5.2-5 5.2zM11.1 12.1c-1.6 0-3 1.4-3 3.2v39.1c0 1.8 1.3 3.2 3 3.2h52.8c1.6 0 3-1.4 3-3.2V15.3c0-1.8-1.3-3.2-3-3.2H11.1z"/>
        <path d="M56 64.9H19c-.6 0-1-.4-1-1s.4-1 1-1h37c.6 0 1 .4 1 1s-.5 1-1 1z"/>
        <path d="M37.5 64.9c-.6 0-1-.4-1-1v-5.3c0-.6.4-1 1-1s1 .4 1 1v5.3c0 .5-.4 1-1 1z"/>
        <path d="M37.5 55.6c-1.3 0-2.3-1-2.3-2.3 0-1.3 1-2.3 2.3-2.3 1.3 0 2.3 1 2.3 2.3 0 1.3-1 2.3-2.3 2.3zm0-2.6c-.2 0-.3.1-.3.3s.1.3.3.3.3-.1.3-.3-.1-.3-.3-.3z"/>
        <path d="M67.8 49.1H7.2c-.6 0-1-.4-1-1s.4-1 1-1h60.7c.6 0 1 .4 1 1s-.5 1-1.1 1z"/>
    </g>
</svg>
