<?xml version="1.0" encoding="UTF-8"?>
<svg width="184px" height="201px" viewBox="0 0 184 201" version="1.1" xmlns="http://www.w3.org/2000/svg" xmlns:xlink="http://www.w3.org/1999/xlink">
    <!-- Generator: Sketch 48.2 (47327) - http://www.bohemiancoding.com/sketch -->
    <title>Shape</title>
    <desc>Created with Sketch.</desc>
    <defs></defs>
    <g id="Page-1" stroke="none" stroke-width="1" fill="none" fill-rule="evenodd">
        <g id="notebook" fill="#F5E5CF" fill-rule="nonzero">
            <path d="M146.2,33.3 L117,33.3 L117,20.8 C117,18.5 115.1,16.6 112.8,16.6 L101.2,16.6 C99.1,7.4 90.5,0 80.8,0 L72.5,0 C62.8,0 54.2,7.4 52.1,16.7 L37.8,16.7 C35.5,16.7 33.6,18.6 33.6,20.9 L33.6,33.4 L4.5,33.4 C2.2,33.4 0.3,35.3 0.3,37.6 L0.3,195.9 C0.3,198.2 2.2,200.1 4.5,200.1 L146.2,200.1 C148.5,200.1 150.4,198.2 150.4,195.9 L150.4,37.5 C150.3,35.2 148.5,33.3 146.2,33.3 Z M42,25 L55.8,25 C58.1,25 60,23.1 60,20.8 C60,15 65.5,8.3 72.5,8.3 L80.8,8.3 C87.8,8.3 93.3,15 93.3,20.8 C93.3,23.1 95.2,25 97.5,25 L108.7,25 L108.7,33.3 L42,33.3 L42,25 Z M142,191.7 L8.7,191.7 L8.7,41.7 L142,41.7 L142,191.7 Z M179.5,25 L162.8,25 C160.5,25 158.6,26.9 158.6,29.2 L158.6,161.1 C158.6,161.5 158.7,162 158.8,162.4 L167.1,187.4 C167.7,189.1 169.3,190.2 171.1,190.2 C172.9,190.2 174.5,189.1 175.1,187.4 L183.4,162.4 C183.5,162 183.6,161.5 183.6,161.1 L183.6,29.2 C183.7,26.9 181.8,25 179.5,25 Z M167,58.3 L175.3,58.3 L175.3,150 L167,150 L167,58.3 Z M167,33.3 L175.3,33.3 L175.3,50 L167,50 L167,33.3 Z M175.3,160.4 L171.1,172.9 L166.9,160.4 L166.9,158.4 L175.2,158.4 L175.2,160.4 L175.3,160.4 Z M21.2,183.3 L129.5,183.3 C131.8,183.3 133.7,181.4 133.7,179.1 L133.7,54.1 C133.7,51.8 131.8,49.9 129.5,49.9 L21.2,49.9 C18.9,49.9 17,51.8 17,54.1 L17,179.1 C17,181.5 18.9,183.3 21.2,183.3 Z M25.3,58.3 L125.3,58.3 L125.3,175 L25.3,175 L25.3,58.3 Z M104.5,79.2 C104.5,81.5 102.6,83.4 100.3,83.4 L50.3,83.4 C48,83.4 46.1,81.5 46.1,79.2 C46.1,76.9 48,75 50.3,75 L100.3,75 C102.6,75 104.5,76.9 104.5,79.2 Z M104.5,104.2 C104.5,106.5 102.6,108.4 100.3,108.4 L50.3,108.4 C48,108.4 46.1,106.5 46.1,104.2 C46.1,101.9 48,100 50.3,100 L100.3,100 C102.6,100 104.5,101.9 104.5,104.2 Z M104.5,129.2 C104.5,131.5 102.6,133.4 100.3,133.4 L50.3,133.4 C48,133.4 46.1,131.5 46.1,129.2 C46.1,126.9 48,125 50.3,125 L100.3,125 C102.6,125 104.5,126.9 104.5,129.2 Z" id="Shape"></path>
        </g>
    </g>
</svg>