<?xml version="1.0" encoding="UTF-8"?>
<svg width="69px" height="69px" viewBox="0 0 69 69" version="1.1" xmlns="http://www.w3.org/2000/svg" xmlns:xlink="http://www.w3.org/1999/xlink">
    <!-- Generator: Sketch 48.2 (47327) - http://www.bohemiancoding.com/sketch -->
    <title>star</title>
    <desc>Created with Sketch.</desc>
    <defs></defs>
    <g id="Page-1" stroke="none" stroke-width="1" fill="none" fill-rule="evenodd">
        <g id="star" fill="#F5E5CF" fill-rule="nonzero">
            <path d="M68.557811,35.6185482 L58.6260183,22.4640723 L63.9554268,6.91454819 C64.1359132,6.3935885 64.0004256,5.81655988 63.6062195,5.42730723 C63.2109226,5.03810765 62.6267685,4.90336672 62.0978963,5.07939759 L46.3646341,10.3504157 L33.0501585,0.535373494 C32.603909,0.205619316 32.006724,0.155163894 31.5102805,0.405271084 C31.0126918,0.655268746 30.7019609,1.16272417 30.7087866,1.71419277 L30.9208354,18.1262169 L17.3535,27.604988 C16.8986602,27.9235226 16.6657291,28.4691226 16.7522744,29.013253 C16.840042,29.5577213 17.2326253,30.0059755 17.7653963,30.1700422 L33.6332927,35.0420241 L38.5617439,50.7158313 C38.7275138,51.2412402 39.1797946,51.6288377 39.7296951,51.716747 C39.806689,51.7279699 39.8841037,51.7333735 39.9585732,51.7333735 C40.4343029,51.7345992 40.8808019,51.5067495 41.1551341,51.1227651 L50.7490793,37.7226325 L67.3641951,37.9317108 C67.8303659,37.9404398 68.4345366,37.6320181 68.6890793,37.1398735 C68.9412408,36.6492734 68.8903866,36.0599024 68.557811,35.6185482 Z" id="Shape"></path>
            <path d="M27.5772805,39.5773193 L0.581030488,66.3206386 C0.00895080744,66.8859877 0.00895080744,67.802428 0.581030488,68.3677771 C0.855688416,68.6396269 1.22850899,68.7923927 1.61729268,68.7923927 C2.00607638,68.7923927 2.37889695,68.6396269 2.65355488,68.3677771 L29.6498049,41.6244578 C30.0256124,41.2598309 30.17443,40.7239929 30.0396011,40.2209443 C29.9047721,39.7178956 29.5070417,39.3250369 28.9978309,39.1919345 C28.4886201,39.0588321 27.9462778,39.2059656 27.5772805,39.5773193 Z" id="Shape"></path>
        </g>
    </g>
</svg>