<?xml version="1.0" encoding="UTF-8"?>
<svg width="100px" height="200px" viewBox="0 0 100 200" version="1.1" xmlns="http://www.w3.org/2000/svg" xmlns:xlink="http://www.w3.org/1999/xlink">
    <!-- Generator: Sketch 48.2 (47327) - http://www.bohemiancoding.com/sketch -->
    <title>lightbulb</title>
    <desc>Created with Sketch.</desc>
    <defs></defs>
    <g id="Page-1" stroke="none" stroke-width="1" fill="none" fill-rule="evenodd">
        <g id="lightbulb" fill="#000000" fill-rule="nonzero">
            <polygon id="Shape" points="47 0 54 0 54 33 47 33"></polygon>
            <polygon id="Shape" points="25.2 36.9 16.6 22 23.1 18.4 31.6 33.2 25.2 36.9"></polygon>
            <path d="M56,60.5 L56,67.9 C67,67.9 76.4,76.7 76.4,88.1 C76.4,88.2 76.3,88.1 76.3,88.1 L83.7,88.1 C83.9,73.1 71.7,60.4 56.3,60.1 C56.2,60.1 56,60.5 56,60.5 Z" id="Shape"></path>
            <path d="M50,42.1 C22.4,42.1 0,64.4 0,92 C0,100 1.9,107.9 5.6,115 C8.1,120.7 11.4,126.2 14.9,131.3 C19.3,138 23,143.6 23,150 L23,183 C23,185 24.6,185.2 26.7,185.2 L34.2,185.2 C34.8,192.2 41.6,200 50,200 C58.4,200 65.2,192.2 65.8,185.2 L73.3,185.2 C75.4,185.2 77,185.2 77,183 L77,150 C77,143.6 80.8,137.9 85.2,131.3 C88.9,126 92.1,120.4 94.6,114.5 C98.1,107.5 100,99.8 100,92 C100,64.5 77.6,42.1 50,42.1 Z M50,192.6 C45.7,192.6 42.2,188.2 41.7,185.2 L58.4,185.2 C57.8,188.2 54.3,192.6 50,192.6 Z M70,178.2 L31,178.2 L31,168.2 L70,168.2 L70,178.2 Z M70,166.2 L31,166.2 L31,159.2 L70,159.2 L70,166.2 Z M70,157.2 L31,157.2 L31,151.2 L70,151.2 L70,157.2 Z M87.9,110.1 L87,110.1 L87,111.5 C85,117.1 82.1,122.2 78.7,127.2 C74,134.3 70.3,140.2 70,149.2 L30.7,149.2 C30.4,140.2 26.2,134.3 21.6,127.2 C18.6,122.5 15.1,117.8 13.1,112 L13.1,111.7 C10.1,105.7 7.9,98.9 7.9,92.1 C7.9,68.6 26.8,49.6 50.3,49.6 C73.8,49.6 92.7,68 92.7,91.5 C92.6,98.2 90.9,105.1 87.9,110.1 Z" id="Shape"></path>
            <polygon id="Shape" points="75.3 36.9 68.9 33.2 77.4 18.4 83.8 22.1 75.3 36.9"></polygon>
        </g>
    </g>
</svg>